# xmcd
#
# Track frame offsets:
#	150
#	17992
#	37515
#	59068
#	76173
#	95050
#	120707
#	146706
#	164704
#	178588
#	201592
#	208899
#	238355
#	258646
#
# Disc length: 3632 seconds
#
# Revision: 2
# Processed by: cddbd v1.4PL0 Copyright (c) Steve Scherf et al.
# Submitted via: EZCDDA 4.3.2
#
DISCID=da0e2e0e
DTITLE=Viad V - O Quinto Sol
DYEAR=1900
DGENRE=
TTITLE0=Na Estrada
TTITLE1=O Momento
TTITLE2=Em Suas Mãos
TTITLE3=Guardião Dos Sonhos
TTITLE4=Lago Sagrado
TTITLE5=Olhos da Noite
TTITLE6=O Chamado da Montanha
TTITLE7=Fique Atento
TTITLE8=Mundo Afora
TTITLE9=Um Lamento
TTITLE10=Morgenlande
TTITLE11=A Guerra Vence O Homem
TTITLE12=Caminhos do Vento
TTITLE13=O Quinto Sol
EXTD=
EXTT0=
EXTT1=
EXTT2=
EXTT3=
EXTT4=
EXTT5=
EXTT6=
EXTT7=
EXTT8=
EXTT9=
EXTT10=
EXTT11=
EXTT12=
EXTT13=
PLAYORDER=
